<svg width="27" height="31" viewBox="0 0 27 31"
    xmlns="http://www.w3.org/2000/svg">
    <path fill="#ffffff" stroke="none" d="M 25.9611 6.542011 L 15.0125 0.111082 C 14.1659 -0.386229 13.1225 -0.385578 12.2765 0.112822 L 1.36328 6.541412 C 0.51949 7.038412 0 7.955011 0 8.946812 L 0 21.807713 C 0 22.800512 0.52064 23.718012 1.36578 24.214611 L 12.279 30.627312 C 13.1238 31.123611 14.1646 31.124311 15.0099 30.628912 L 25.9585 24.214012 C 26.805401 23.717913 27.327299 22.799511 27.327299 21.805412 L 27.327299 8.949211 C 27.327299 7.956112 26.806601 7.038511 25.9611 6.542011 Z"/>
    <path fill="#231f20" stroke="none" d="M 6.28287 11.348513 L 12.8171 15.077612 C 12.8992 15.124412 12.95 15.212711 12.95 15.308512 L 12.95 22.683311 C 12.95 22.885712 12.7358 23.013212 12.5623 22.914112 L 6.02809 19.180912 C 5.94599 19.134111 5.89527 19.045813 5.89527 18.950111 L 5.89527 11.579311 C 5.89527 11.377012 6.10939 11.249512 6.28287 11.348513 Z"/>
    <path fill="#231f20" stroke="none" d="M 6.28238 20.869911 L 12.8166 24.599112 C 12.8987 24.646011 12.9495 24.733912 12.9495 24.829712 L 12.9495 30.897211 C 12.9495 30.935112 12.7564 30.868711 12.7025 30.849411 C 12.6931 30.846111 12.6842 30.842211 12.6753 30.837711 L 12.5151 30.756212 L 12.3416 30.668013 L 6.02517 26.968613 C 5.94451 26.921412 5.89478 26.833912 5.89478 26.739212 L 5.89478 21.100811 C 5.89478 20.898512 6.10891 20.771011 6.28238 20.869911 Z"/>
    <path fill="#231f20" stroke="none" d="M 21.004801 11.348513 L 14.4706 15.077612 C 14.3885 15.124412 14.3377 15.212711 14.3377 15.308512 L 14.3377 22.683311 C 14.3377 22.885712 14.5519 23.013212 14.7254 22.914112 L 21.2596 19.180912 C 21.3417 19.134111 21.3925 19.045813 21.3925 18.950111 L 21.3925 11.579311 C 21.3925 11.377012 21.178301 11.249512 21.004801 11.348513 Z"/>
    <path fill="#231f20" stroke="none" d="M 13.5101 5.824942 L 6.9359 9.660912 C 6.7607 9.763212 6.7618 10.020712 6.9379 10.121412 L 13.5121 13.877512 C 13.5915 13.922913 13.6885 13.922712 13.7677 13.877111 L 20.298401 10.121012 C 20.4736 10.020113 20.4748 9.763712 20.3004 9.661312 L 13.7698 5.825302 C 13.6895 5.778141 13.5905 5.777992 13.5101 5.824942 Z"/>
</svg>
